<?xml version="1.0" standalone="no"?>
<!DOCTYPE svg PUBLIC "-//W3C//DTD SVG 20010904//EN"
 "http://www.w3.org/TR/2001/REC-SVG-20010904/DTD/svg10.dtd">
<svg version="1.0" xmlns="http://www.w3.org/2000/svg"
 width="1260.000000pt" height="1260.000000pt" viewBox="0 0 1260.000000 1260.000000"
 preserveAspectRatio="xMidYMid meet">
<metadata>
Created by potrace 1.11, written by Peter Selinger 2001-2013
</metadata>
<g transform="translate(0.000000,1260.000000) scale(0.100000,-0.100000)"
fill="#000000" stroke="none">
<path d="M3495 11872 l-110 -3 -134 -370 c-74 -203 -138 -366 -142 -362 -4 5
-32 69 -62 144 l-54 135 77 205 c42 112 80 214 84 227 7 22 6 22 -87 22 l-95
0 -48 -137 c-26 -76 -50 -146 -53 -155 -4 -10 -27 44 -60 138 l-53 154 -94 0
c-52 0 -94 -2 -94 -3 0 -2 36 -101 80 -220 44 -119 80 -222 80 -229 0 -17
-104 -288 -110 -288 -3 0 -66 166 -140 370 l-135 370 -112 0 -111 0 114 -282
c64 -156 154 -379 202 -496 l86 -213 89 3 89 3 82 197 c44 109 82 194 84 190
1 -4 38 -92 81 -197 l79 -190 89 -3 89 -3 194 478 195 478 3 -482 2 -483 345
0 345 0 0 90 0 90 -245 0 -245 0 0 130 0 130 210 0 210 0 0 80 0 80 -210 0
-210 0 0 115 0 115 240 0 240 0 0 90 0 90 -337 -2 c-186 -1 -387 -4 -448 -6z"/>
<path d="M5358 11409 l-3 -473 -169 429 c-93 237 -175 447 -184 468 l-14 38
-87 -3 -86 -3 -192 -485 c-106 -267 -192 -488 -193 -492 0 -5 48 -8 108 -8
l107 0 44 125 45 125 167 0 167 0 16 -42 c9 -24 29 -79 45 -123 l29 -80 201
-3 201 -2 0 165 0 165 89 0 89 0 104 -165 103 -164 118 -1 119 0 -24 38 c-12
20 -64 102 -115 182 -79 124 -89 146 -76 155 49 31 99 87 125 140 23 50 28 73
28 137 0 109 -27 177 -99 249 -87 86 -108 91 -408 97 l-253 4 -2 -473z m488
265 c71 -52 91 -128 56 -207 -32 -72 -54 -81 -209 -85 l-133 -4 0 162 0 162
129 -4 c112 -3 133 -6 157 -24z m-820 -386 c5 -17 -5 -18 -126 -18 -115 0
-131 2 -126 15 3 9 30 84 60 168 30 84 58 160 62 171 5 13 24 -29 66 -150 32
-93 61 -177 64 -186z"/>
<path d="M6200 11375 l0 -505 345 0 345 0 0 90 0 90 -245 0 -245 0 0 130 0
130 210 0 210 0 0 80 0 80 -210 0 -210 0 0 115 0 115 240 0 240 0 0 90 0 90
-340 0 -340 0 0 -505z"/>
<path d="M8100 11375 l0 -505 345 0 345 0 0 90 0 90 -245 0 -245 0 0 130 0
130 210 0 210 0 0 80 0 80 -210 0 -210 0 0 115 0 115 240 0 240 0 0 90 0 90
-340 0 -340 0 0 -505z"/>
<path d="M8840 11381 l0 -501 100 0 100 0 0 165 0 165 89 0 89 0 104 -165 103
-164 118 -1 119 0 -24 38 c-12 20 -64 102 -115 182 -79 124 -89 146 -76 155
49 31 99 87 125 140 23 50 28 73 28 137 0 109 -27 177 -99 249 -87 86 -108 91
-408 97 l-253 4 0 -501z m486 293 c71 -52 91 -128 56 -207 -32 -72 -54 -81
-209 -85 l-133 -4 0 162 0 162 129 -4 c112 -3 133 -6 157 -24z"/>
<path d="M9680 11375 l0 -505 345 0 345 0 0 90 0 90 -245 0 -245 0 0 130 0
130 210 0 210 0 0 80 0 80 -210 0 -210 0 0 115 0 115 240 0 240 0 0 90 0 90
-340 0 -340 0 0 -505z"/>
<path d="M7170 11375 l0 -495 100 0 100 0 0 210 0 210 220 0 220 0 0 -210 0
-210 100 0 100 0 0 495 0 495 -100 0 -100 0 0 -200 0 -200 -220 0 -220 0 0
200 0 200 -100 0 -100 0 0 -495z"/>
<path d="M7156 10198 c-3 -57 -10 -233 -16 -393 -5 -159 -12 -336 -15 -392
l-5 -103 71 -147 c186 -385 219 -456 216 -459 -2 -2 -492 -3 -1089 -2 l-1084
3 139 285 140 285 -12 315 c-6 173 -14 399 -18 503 l-6 187 -308 0 c-284 0
-308 -1 -313 -17 -3 -10 -10 -70 -16 -133 -31 -340 -36 -367 -66 -407 -29 -38
-656 -825 -680 -853 -12 -15 -20 -114 -45 -577 -14 -247 -19 -206 56 -413 29
-79 182 -511 198 -559 7 -19 26 -50 43 -68 26 -27 39 -33 73 -33 l41 0 0 -282
0 -281 -22 20 c-37 33 -64 43 -118 43 -61 0 -100 -18 -133 -62 -15 -19 -109
-270 -226 -595 l-200 -563 30 -562 31 -562 151 -191 c83 -104 313 -392 511
-640 197 -247 363 -455 368 -461 7 -10 78 -638 78 -696 0 -17 28 -18 445 -18
l445 0 1 48 c1 124 46 1242 50 1246 4 4 181 -102 206 -124 7 -5 15 -10 18 -10
6 0 64 -36 156 -97 39 -26 81 -30 101 -9 8 7 29 21 48 31 18 9 38 21 44 26 31
27 288 180 293 175 5 -4 51 -1108 53 -1253 l0 -33 445 0 c245 0 445 3 445 8 1
55 72 677 78 686 5 6 171 214 368 461 198 248 428 536 511 640 l151 191 31
562 30 562 -200 563 c-117 325 -211 576 -226 595 -33 44 -72 62 -136 62 -41 0
-63 -6 -91 -25 l-36 -24 0 297 0 298 34 -4 c43 -5 89 19 114 60 11 18 52 125
92 238 72 207 150 423 176 493 18 49 18 126 -3 518 l-17 327 -362 452 -361
452 -7 61 c-9 83 -46 449 -46 454 0 1 -139 3 -309 3 l-309 0 -6 -102z m1074
-2086 c0 -20 -61 -326 -66 -331 -2 -2 -4 97 -4 220 l0 224 35 -49 c19 -27 35
-56 35 -64z m-3771 -119 l-1 -178 -29 140 -28 140 26 38 c14 20 27 37 29 37 2
0 3 -80 3 -177z m-1 -2485 l-3 -291 -90 119 c-49 65 -89 126 -89 134 1 8 41
218 90 466 l89 452 3 -295 c1 -162 1 -425 0 -585z m3876 -46 c4 -13 -19 -52
-79 -132 -46 -62 -87 -115 -90 -118 -3 -3 -5 246 -4 554 l0 559 84 -422 c46
-233 86 -431 89 -441z"/>
<path d="M3480 1221 l0 -501 100 0 100 0 0 165 0 165 89 0 89 0 104 -165 103
-164 118 -1 119 0 -24 38 c-12 20 -64 102 -115 182 -79 124 -89 146 -76 155
49 31 99 87 125 140 23 50 28 73 28 137 0 109 -27 177 -99 249 -87 86 -108 91
-408 97 l-253 4 0 -501z m486 293 c71 -52 91 -128 56 -207 -32 -72 -54 -81
-209 -85 l-133 -4 0 162 0 162 129 -4 c112 -3 133 -6 157 -24z"/>
<path d="M4320 1215 l0 -505 345 0 345 0 0 90 0 90 -245 0 -245 0 0 130 0 130
210 0 210 0 0 80 0 80 -210 0 -210 0 0 115 0 115 240 0 240 0 0 90 0 90 -340
0 -340 0 0 -505z"/>
<path d="M5060 1215 l0 -505 345 0 345 0 0 90 0 90 -245 0 -245 0 0 130 0 130
210 0 210 0 0 80 0 80 -210 0 -210 0 0 115 0 115 240 0 240 0 0 90 0 90 -340
0 -340 0 0 -505z"/>
<path d="M6680 1630 l0 -90 155 0 155 0 0 -410 0 -410 100 0 100 0 0 410 0
410 160 0 160 0 0 90 0 90 -415 0 -415 0 0 -90z"/>
<path d="M7520 1221 l0 -501 100 0 100 0 0 165 0 165 89 0 89 0 104 -165 103
-164 118 -1 119 0 -24 38 c-12 20 -64 102 -115 182 -79 124 -89 146 -76 155
49 31 99 87 125 140 23 50 28 73 28 137 0 109 -27 177 -99 249 -87 86 -108 91
-408 97 l-253 4 0 -501z m486 293 c71 -52 91 -128 56 -207 -32 -72 -54 -81
-209 -85 l-133 -4 0 162 0 162 129 -4 c112 -3 133 -6 157 -24z"/>
<path d="M5800 1215 l0 -495 100 0 100 0 2 304 3 304 245 -304 245 -303 88 -1
87 0 0 495 0 495 -100 0 -100 0 -2 -316 -3 -315 -254 315 -253 316 -79 0 -79
0 0 -495z"/>
<path d="M8203 1698 c2 -7 84 -155 181 -328 l176 -315 0 -167 0 -168 100 0
100 0 0 173 0 173 176 314 c97 173 178 318 181 323 2 4 -47 7 -109 7 l-113 0
-119 -231 -119 -230 -49 93 c-28 51 -81 155 -119 231 l-69 137 -111 0 c-85 0
-110 -3 -106 -12z"/>
</g>
</svg>
